<svg width="1440" height="87" viewBox="0 0 1440 87" fill="none" xmlns="http://www.w3.org/2000/svg">
<path d="M0 0H1440V55C1440 66.201 1440 71.8016 1437.82 76.0798C1435.9 79.843 1432.84 82.9027 1429.08 84.8201C1424.8 87 1419.2 87 1408 87H32C20.7989 87 15.1984 87 10.9202 84.8201C7.15695 82.9027 4.09734 79.843 2.17987 76.0798C0 71.8016 0 66.201 0 55V0Z" fill="#FA25CB"/>
<path d="M0 0H1440V55C1440 66.201 1440 71.8016 1437.82 76.0798C1435.9 79.843 1432.84 82.9027 1429.08 84.8201C1424.8 87 1419.2 87 1408 87H32C20.7989 87 15.1984 87 10.9202 84.8201C7.15695 82.9027 4.09734 79.843 2.17987 76.0798C0 71.8016 0 66.201 0 55V0Z" fill="url(#paint0_linear_1_64)" fill-opacity="0.2"/>
<defs>
<linearGradient id="paint0_linear_1_64" x1="0" y1="43.5" x2="1440" y2="43.5" gradientUnits="userSpaceOnUse">
<stop stop-opacity="0.4"/>
<stop offset="0.635" stop-opacity="0.7"/>
<stop offset="1"/>
</linearGradient>
</defs>
</svg>
